<svg xmlns="http://www.w3.org/2000/svg" width="50" height="50"><path style="stroke:none;fill-rule:nonzero;fill:#399fc2;fill-opacity:1" d="M19.14 17.89h2.344v18.75h-2.343ZM23.828 17.89h2.344v18.75h-2.344ZM28.516 17.89h2.343v18.75h-2.343ZM9.766 10.86h30.468v2.343H9.766Zm0 0"/><path style="stroke:none;fill-rule:nonzero;fill:#399fc2;fill-opacity:1" d="M30.781 12.031h-2.187V9.687c0-.703-.547-1.25-1.25-1.25h-4.688c-.703 0-1.25.547-1.25 1.25v2.344H19.22V9.687c0-1.874 1.562-3.437 3.437-3.437h4.688c1.875 0 3.437 1.563 3.437 3.438v2.343"/><path style="stroke:none;fill-rule:nonzero;fill:#399fc2;fill-opacity:1" d="M32.031 43.672H17.97c-1.875 0-3.516-1.563-3.672-3.438L12.109 12.11l2.344-.156 2.188 28.125c.078.703.703 1.25 1.328 1.25H32.03c.703 0 1.328-.625 1.328-1.25l2.188-28.125 2.344.156-2.188 28.125c-.156 1.953-1.797 3.438-3.672 3.438"/></svg>